<svg preserveAspectRatio="none" width="100%" height="100%" overflow="visible" style="display: block;" viewBox="0 0 100 100" fill="none" xmlns="http://www.w3.org/2000/svg">
<g id="image">
<path id="Vector" opacity="0.2" d="M9.5 10C9.5 10.276 9.72404 10.5 10 10.5C10.276 10.5 10.5 10.276 10.5 10C10.5 9.72404 10.276 9.5 10 9.5C9.72404 9.5 9.5 9.72404 9.5 10V10" fill="var(--fill-0, white)"/>
<path id="Vector_2" opacity="0.3" d="M49.2 50C49.2 50.4415 49.5585 50.8 50 50.8C50.4415 50.8 50.8 50.4415 50.8 50C50.8 49.5585 50.4415 49.2 50 49.2C49.5585 49.2 49.2 49.5585 49.2 50V50" fill="var(--fill-0, white)"/>
<path id="Vector_3" opacity="0.1" d="M79.7 20C79.7 20.1656 79.8344 20.3 80 20.3C80.1656 20.3 80.3 20.1656 80.3 20C80.3 19.8344 80.1656 19.7 80 19.7C79.8344 19.7 79.7 19.8344 79.7 20V20" fill="var(--fill-0, white)"/>
</g>
</svg>
