<svg preserveAspectRatio="none" width="100%" height="100%" overflow="visible" style="display: block;" viewBox="0 0 18.9999 12.4999" fill="none" xmlns="http://www.w3.org/2000/svg">
<g id="Container">
<path id="Icon" d="M0 12.4999V6.99993C0 6.62686 0.0884613 6.265 0.265384 5.91436C0.442307 5.56372 0.687179 5.27558 1 5.04994V2.49996C1 1.80126 1.24198 1.20992 1.72595 0.725951C2.20992 0.241984 2.80126 0 3.49996 0H7.74998C8.11408 0 8.44036 0.0708333 8.72882 0.2125C9.01728 0.354167 9.27433 0.55 9.49996 0.8C9.7256 0.55 9.98265 0.354167 10.2711 0.2125C10.5596 0.0708333 10.8858 0 11.2499 0H15.5C16.1987 0 16.79 0.241984 17.274 0.725951C17.7579 1.20992 17.9999 1.80126 17.9999 2.49996V5.04994C18.3127 5.27558 18.5576 5.56372 18.7345 5.91436C18.9115 6.265 18.9999 6.62686 18.9999 6.99993V12.4999H17.5V10.4999H1.49996V12.4999H0V12.4999M10.2499 4.49996H16.5V2.49996C16.5 2.21663 16.4041 1.97913 16.2125 1.78746C16.0208 1.5958 15.7833 1.49996 15.5 1.49996H11.2499C10.9666 1.49996 10.7291 1.5958 10.5374 1.78746C10.3458 1.97913 10.2499 2.21663 10.2499 2.49996V4.49996V4.49996M2.49996 4.49996H8.74998V2.49996C8.74998 2.21663 8.65415 1.97913 8.46248 1.78746C8.27081 1.5958 8.03332 1.49996 7.74998 1.49996H3.49996C3.21663 1.49996 2.97913 1.5958 2.78746 1.78746C2.5958 1.97913 2.49996 2.21663 2.49996 2.49996V4.49996V4.49996M1.49996 8.99993H17.5V6.99993C17.5 6.71659 17.4041 6.47909 17.2125 6.28743C17.0208 6.09576 16.7833 5.99993 16.5 5.99993H2.49996C2.21663 5.99993 1.97913 6.09576 1.78746 6.28743C1.5958 6.47909 1.49996 6.71659 1.49996 6.99993V8.99993V8.99993M17.5 8.99993V8.99993H1.49996V8.99993C1.49996 8.99993 1.5958 8.99993 1.78746 8.99993C1.97913 8.99993 2.21663 8.99993 2.49996 8.99993H16.5C16.7833 8.99993 17.0208 8.99993 17.2125 8.99993C17.4041 8.99993 17.5 8.99993 17.5 8.99993V8.99993" fill="var(--fill-0, #FFDEE3)"/>
</g>
</svg>
