<svg preserveAspectRatio="none" width="100%" height="100%" overflow="visible" style="display: block;" viewBox="0 0 13.5 13.5" fill="none" xmlns="http://www.w3.org/2000/svg">
<g id="Container">
<path id="Icon" d="M6 13.5V7.51875V7.51875C5.2 7.51875 4.43125 7.36562 3.69375 7.05937C2.95625 6.75312 2.30625 6.31875 1.74375 5.75625C1.18125 5.19375 0.75 4.54375 0.45 3.80625C0.15 3.06875 0 2.3 0 1.5V0H1.5C2.2875 0 3.05 0.153125 3.7875 0.459375C4.525 0.765625 5.175 1.2 5.7375 1.7625C6.125 2.15 6.44688 2.575 6.70312 3.0375C6.95937 3.5 7.15625 3.99375 7.29375 4.51875C7.35625 4.43125 7.425 4.34687 7.5 4.26562C7.575 4.18438 7.65625 4.1 7.74375 4.0125C8.30625 3.45 8.95625 3.01562 9.69375 2.70937C10.4313 2.40312 11.2 2.25 12 2.25H13.5V3.75C13.5 4.55 13.3469 5.31875 13.0406 6.05625C12.7344 6.79375 12.3 7.44375 11.7375 8.00625C11.175 8.56875 10.5281 9 9.79688 9.3C9.06563 9.6 8.3 9.75 7.5 9.75V9.75V13.5H6V13.5M6 6C6 5.4 5.88437 4.82813 5.65312 4.28438C5.42187 3.74063 5.09375 3.25625 4.66875 2.83125C4.24375 2.40625 3.75938 2.07812 3.21563 1.84687C2.67188 1.61562 2.1 1.5 1.5 1.5C1.5 2.1 1.6125 2.675 1.8375 3.225C2.0625 3.775 2.3875 4.2625 2.8125 4.6875C3.2375 5.1125 3.725 5.4375 4.275 5.6625C4.825 5.8875 5.4 6 6 6V6M7.5 8.25C8.1 8.25 8.67187 8.1375 9.21562 7.9125C9.75937 7.6875 10.2437 7.3625 10.6687 6.9375C11.0937 6.5125 11.4219 6.025 11.6531 5.475C11.8844 4.925 12 4.35 12 3.75C11.4 3.75 10.825 3.86563 10.275 4.09688C9.725 4.32813 9.2375 4.65625 8.8125 5.08125C8.3875 5.50625 8.0625 5.99063 7.8375 6.53438C7.6125 7.07813 7.5 7.65 7.5 8.25V8.25M7.5 8.25V8.25V8.25V8.25V8.25V8.25V8.25V8.25V8.25V8.25M6 6V6V6V6V6V6V6V6V6V6" fill="var(--fill-0, #D6C2C4)"/>
</g>
</svg>
