<svg preserveAspectRatio="none" width="100%" height="100%" overflow="visible" style="display: block;" viewBox="0 0 131 15" fill="none" xmlns="http://www.w3.org/2000/svg">
<g id="Container">
<path id="Icon" d="M3.73611 6.625L2.90278 7.08333C2.70833 7.19444 2.5 7.22222 2.27778 7.16667C2.05556 7.11111 1.88889 6.98611 1.77778 6.79167L0.111111 3.875C0 3.68056 -0.0277778 3.47222 0.0277778 3.25C0.0833333 3.02778 0.208333 2.86111 0.402778 2.75L5.19444 0H6.65278C6.77778 0 6.87847 0.0381944 6.95486 0.114583C7.03125 0.190972 7.06944 0.291667 7.06944 0.416667V0.833333C7.06944 1.29167 7.23264 1.68403 7.55903 2.01042C7.88542 2.33681 8.27778 2.5 8.73611 2.5C9.19444 2.5 9.58681 2.33681 9.91319 2.01042C10.2396 1.68403 10.4028 1.29167 10.4028 0.833333V0.416667C10.4028 0.291667 10.441 0.190972 10.5174 0.114583C10.5937 0.0381944 10.6944 0 10.8194 0H12.2778L17.0694 2.75C17.2639 2.86111 17.3889 3.02778 17.4444 3.25C17.5 3.47222 17.4722 3.68056 17.3611 3.875L15.6944 6.79167C15.5833 6.98611 15.4201 7.10764 15.2049 7.15625C14.9896 7.20486 14.7778 7.17361 14.5694 7.0625L13.7361 6.64583V14.1667C13.7361 14.4028 13.6562 14.6007 13.4965 14.7604C13.3368 14.9201 13.1389 15 12.9028 15H4.56944C4.33333 15 4.13542 14.9201 3.97569 14.7604C3.81597 14.6007 3.73611 14.4028 3.73611 14.1667V6.625V6.625M5.40278 3.83333V13.3333H12.0694V3.83333L14.6528 5.25L15.5278 3.79167L11.9444 1.70833V1.70833C11.7361 2.41667 11.3437 3.00347 10.7674 3.46875C10.191 3.93403 9.51389 4.16667 8.73611 4.16667C7.95833 4.16667 7.28125 3.93403 6.70486 3.46875C6.12847 3.00347 5.73611 2.41667 5.52778 1.70833V1.70833L1.94444 3.79167L2.81944 5.25L5.40278 3.83333V3.83333M8.73611 7.52083V7.52083V7.52083V7.52083V7.52083V7.52083V7.52083V7.52083V7.52083V7.52083V7.52083V7.52083V7.52083V7.52083V7.52083V7.52083V7.52083" fill="var(--fill-0, #F0BD8B)"/>
</g>
</svg>
